<svg width="240" height="240" viewBox="0 0 240 240" fill="none" xmlns="http://www.w3.org/2000/svg">
  <g>
    <path d="M 150 200 L 138 150 L 152 120 L 180 105 L 210 122 L 222 152 L 214 186 L 188 206 L 162 208 Z" fill="#ea580c"/>
    <path d="M 152 196 L 144 152 L 156 126 L 180 112 L 205 127 L 214 153 L 207 182 L 185 199 L 164 201 Z" fill="#f97316"/>
    <path d="M 180 105 L 210 122 L 200 138 L 173 122 Z" fill="#ffe8cf"/>
  </g>
  <path d="M 120 150 C 95 150 78 174 78 198 C 78 217 96 226 120 226 C 144 226 162 217 162 198 C 162 174 145 150 120 150 Z" fill="#f97316"/>
  <path d="M 120 174 C 106 174 97 189 97 202 C 97 216 108 222 120 222 C 132 222 143 216 143 202 C 143 189 134 174 120 174 Z" fill="#ffe8cf"/>
  <ellipse cx="104" cy="219" rx="9" ry="11" fill="#ffe8cf"/>
  <ellipse cx="136" cy="219" rx="9" ry="11" fill="#ffe8cf"/>
  <path d="M 104 214 L 104 224 M 100 214 L 100 224 M 108 214 L 108 224" stroke="#ea580c" stroke-width="1.4" stroke-linecap="round" opacity="0.5"/>
  <path d="M 136 214 L 136 224 M 132 214 L 132 224 M 140 214 L 140 224" stroke="#ea580c" stroke-width="1.4" stroke-linecap="round" opacity="0.5"/>
  <path d="M 70 95 L 58 38 L 108 72 Z" fill="#f97316"/>
  <path d="M 170 95 L 182 38 L 132 72 Z" fill="#f97316"/>
  <path d="M 75 88 L 67 52 L 99 71 Z" fill="#ffe8cf"/>
  <path d="M 165 88 L 173 52 L 141 71 Z" fill="#ffe8cf"/>
  <path d="M 76 80 C 76 58 96 48 120 48 C 144 48 164 58 164 80 L 178 104 L 152 112 L 168 134 L 140 144 L 120 166 L 100 144 L 72 134 L 88 112 L 62 104 Z" fill="#f97316"/>
  <path d="M 90 106 C 90 98 104 95 120 95 C 136 95 150 98 150 106 C 150 128 138 150 120 164 C 102 150 90 128 90 106 Z" fill="#ffe8cf"/>
  <ellipse cx="104" cy="104" rx="5.2" ry="7" fill="#1a1a1a"/>
       <ellipse cx="136" cy="104" rx="5.2" ry="7" fill="#1a1a1a"/>
       <circle cx="105.8" cy="101.6" r="1.7" fill="#fff"/>
       <circle cx="137.8" cy="101.6" r="1.7" fill="#fff"/>
  <path d="M 112 138 L 128 138 Q 122 150 120 152 Q 118 150 112 138 Z" fill="#1a1a1a"/>
  <path d="M 120 152 Q 120 158 113 159 M 120 152 Q 120 158 127 159" stroke="#1a1a1a" stroke-width="1.8" stroke-linecap="round" fill="none"/>
  <path d="M 108 144 L 80 139 M 108 150 L 82 152 M 132 144 L 160 139 M 132 150 L 158 152" stroke="#1a1a1a" stroke-width="1.3" stroke-linecap="round" opacity="0.45"/>
  
  
</svg>